<svg id="Layer_5" data-name="Layer 5" xmlns="http://www.w3.org/2000/svg" viewBox="0 0 274.37 332.26"><defs><style>.cls-1{fill:#fff;}</style></defs><title>znam-macedonian</title><path class="cls-1" d="M87.48,34.58c.43.51.84,1,1.31,1.51q44.65,44.67,89.31,89.31a16.47,16.47,0,0,0,1.76,1.29l-8.83,8.4,16.25,15.8-8.2,8.28-15.56-15.92-7.9,7.49L63.41,58.53c.34-.36.73-.81,1.16-1.24L86,35.83c.4-.39.75-.83,1.12-1.25Z" transform="translate(-63.22 -34.58)"/><path class="cls-1" d="M313.64,34.58q6.56,6.63,13.11,13.23c3.54,3.57,7.11,7.11,10.5,10.5L245,150.58l-7.52-7.15-15.57,15.94L213.72,151l15.6-15.53-8.23-8.07-.32-.89a8.33,8.33,0,0,0,1.92-1.09Q267.36,80.76,312,36.1c.47-.47.87-1,1.31-1.52Z" transform="translate(-63.22 -34.58)"/><path class="cls-1" d="M227.76,335.09V273H173.08v62.15h-2q-19.41-.1-38.82-.22c-2.31,0-4.62-.27-6.94-.31-1.47,0-1.92-.64-1.83-2.09.51-8.06.93-16.13,1.43-24.19s1.11-16,1.58-24a6.67,6.67,0,0,1,2.05-4.74q30.69-30.57,61.24-61.27c.36-.36.78-.65,1.32-1.09-1.65-1.73-3.16-3.29-4.64-4.89-3-3.22-3.05-3.41-.12-6.58,2.34-2.53,4.89-4.86,7.27-7.34,2.81-2.93,10.61-2.77,13.13-.28,3.17,3.14,6.26,6.35,9.39,9.52a1.66,1.66,0,0,1-.07,2.54c-2,2.3-4,4.57-6.11,6.94.38.4.78.85,1.2,1.28q30.84,30.89,61.65,61.82a5,5,0,0,1,1.36,2.89c.91,12.85,1.73,25.7,2.55,38.55.23,3.61.32,7.23.62,10.83.13,1.61-.51,2.08-2,2.11-7.63.15-15.25.42-22.87.51s-15.37,0-23.06,0C228.9,335.18,228.41,335.13,227.76,335.09Z" transform="translate(-63.22 -34.58)"/><path class="cls-1" d="M163.27,200.91l15.87-15.27,7.77,8.38-15.08,14.66,7.66,7.34L86.68,308.83,63.22,285.37l92.54-92.9Q159.6,196.81,163.27,200.91Z" transform="translate(-63.22 -34.58)"/><path class="cls-1" d="M237,201l8-8.16,92.62,92.63-23.4,23.4L221.35,216l7.38-6.74-15.29-15.66,8.7-7.92C226.77,190.47,231.76,195.6,237,201Z" transform="translate(-63.22 -34.58)"/><path class="cls-1" d="M108.35,365.85c1.67-7.13,3.24-14,4.92-20.73a2.2,2.2,0,0,1,1.57-1.32c5.58-.3,11.17-.66,16.75-.66q65.85,0,131.71.11c7.46,0,14.92.1,22.37.13.8,0,1.54-.09,1.79,1,1.58,7,3.21,13.94,4.92,21.28-2,.19-3.67.46-5.38.49-17,.25-34,.6-51,.64q-44,.12-88-.11c-11.53,0-23-.33-34.58-.53C111.87,366.14,110.3,366,108.35,365.85Z" transform="translate(-63.22 -34.58)"/><path class="cls-1" d="M218.89,335.07h-37V280.6h37Z" transform="translate(-63.22 -34.58)"/><path class="cls-1" d="M208.85,127.27l8.64,7.86c-3.94,3.73-7.47,7.4-11.35,10.65-3.43,2.86-8.78,2.5-12.21-.36-1-.79-1.84-1.66-2.73-2.53-2.57-2.53-5.13-5.08-7.71-7.65l8.77-8.56a8.55,8.55,0,0,1-1.9-1.06Q179.92,115,169.55,104.28a14.43,14.43,0,0,1-1.38-1.72c-1.31-1.81-1.24-2.31.8-3.08,2.9-1.09,5.83-2.1,8.8-3a78.45,78.45,0,0,1,53.95,3.14c.67.29,1.32.64,2,1a5.62,5.62,0,0,1,.79.72Z" transform="translate(-63.22 -34.58)"/><path class="cls-1" d="M184.42,171.65a15.93,15.93,0,0,1,16-15.71c8.58,0,16.11,7.45,16.11,15.93a16.19,16.19,0,0,1-16.2,16.29C191.33,188.14,184.4,180.94,184.42,171.65Z" transform="translate(-63.22 -34.58)"/><path class="cls-1" d="M121.9,167.8c-.87-5.24,3.68-23.65,7.58-30.67l25.71,26.09c2.13-2,3.8-3.69,5.57-5.25,2.93-2.57,3.14-2.64,5.92.07,3.25,3.18,6.29,6.56,9.32,9.76Z" transform="translate(-63.22 -34.58)"/><path class="cls-1" d="M245.25,162.78c8.78-8.29,16.83-17.25,26.46-25.2a109.48,109.48,0,0,1,7.69,30.35c-17.92-.14-35.77.32-54-.56a10.56,10.56,0,0,1,1-1.52c3-3,6.09-6,9.12-9.07a1.89,1.89,0,0,1,2.95-.05Z" transform="translate(-63.22 -34.58)"/><path class="cls-1" d="M132.2,203.84c.58-9.29,1.12-18.12,1.68-27.07h41l-12.09,12-7.66-7.87Z" transform="translate(-63.22 -34.58)"/><path class="cls-1" d="M225.55,176.74h41.34c.56,8.95,1.11,17.81,1.67,26.86l-22.68-22.73-8,8.26Z" transform="translate(-63.22 -34.58)"/></svg>