<svg id="Layer_2" data-name="Layer 2" xmlns="http://www.w3.org/2000/svg" viewBox="0 0 389.95 349.23"><defs><style>.cls-1{fill:#fff;}.cls-2{fill:#f26726;}</style></defs><title>znam-philosophy</title><path class="cls-1" d="M269.7,364.75s-22.58-48.46-13.7-52,28.54,6,54.8-7.48,30.07-41.61,30.07-41.61,38.31-7.87,46.05-35.52c9.89-35.52-5.84-46.3-6.73-48.21s10-34.88-12.56-65.45-51.37-28-51.37-28-1-21.06-23.72-35-47.83-1.27-47.83-1.27-9.26-17.51-34.63-19.92S172,45.08,172,45.08s-18.14-13.83-40.34-5.46a46.8,46.8,0,0,0-27.9,28.29S73.46,56.75,54.3,80.72s-9.89,41.48-9.89,41.48-33.49,7.24-34.25,37.93c-1.4,53.66,46.43,58.23,46.43,58.23s.25,25.75,24.48,29.69,33.49-8.38,33.49-8.38,1.52,31.59,25.62,39.46,35.4,2.66,35.4,2.66-9.9,11.67,6.85,25.75,34.25.51,40.08,11.16,30.83,50.87,30.83,50.87Z" transform="translate(-5.05 -25.03)"/><path class="cls-2" d="M393.39,193.24a35.34,35.34,0,0,0-8-14.71c0-.38.13-.76.13-1.14,1.52-9.52,6.09-38.57-13.83-65.59-18.64-25.37-41.48-29.55-51.12-30.06-1.65-7.74-7.1-23.09-25.37-34.38A49.08,49.08,0,0,0,268.69,40a62.78,62.78,0,0,0-22.08,4.06c-4.56-6-15.6-16.74-36-18.77-1.78-.13-3.55-.26-5.33-.26a47.66,47.66,0,0,0-34,13.58,50.3,50.3,0,0,0-24.73-6.73A46.31,46.31,0,0,0,130,34.93a52.48,52.48,0,0,0-29.17,26.89A61.91,61.91,0,0,0,87.28,60.3c-15.09,0-27.9,6-36.91,17.25C35.78,95.82,36.29,111,38.06,118.78a61,61,0,0,0-13.32,6.6c-12.55,8.37-19.28,20.29-19.66,34.5C4.32,190,18.15,205.55,30,213.41a61.18,61.18,0,0,0,21.81,9.14c1.53,10.91,8.63,27.14,28.29,30.32a56.88,56.88,0,0,0,10,.88c9.39,0,16.12-2.41,20.68-4.94,2.41,10.91,9,28.92,27.66,35A83.05,83.05,0,0,0,164,288.39a31.24,31.24,0,0,0,3.55-.13,21.45,21.45,0,0,0,0,3.93c.51,6.72,4.44,13.19,11.42,19,8.63,7.23,17.25,8.12,23.85,8.12,1.9,0,3.68,0,5.33-.13s2.79-.13,4.06-.13c4.31,0,5.07.77,5.71,1.91,5.83,10.53,29.93,49.34,31,51a5.05,5.05,0,0,0,4.18,2.29,4.22,4.22,0,0,0,1.27-.13l16.75-4.57a5.12,5.12,0,0,0,3.17-2.66,4.88,4.88,0,0,0,0-4.19c0-.12-4.69-10.15-8.88-21.18-6.22-16.49-6.6-22.58-6.47-24.49a17.3,17.3,0,0,1,2.92-.25c1.9,0,4.06.13,6.59.38,3.3.26,7,.51,11,.51a71,71,0,0,0,33.49-8c23-11.8,30.06-33.62,32-42,10-2.79,39.45-12.81,46.55-38.31C395.42,215.19,396.05,203,393.39,193.24ZM163.9,278.62c-6.72,0-14.2-1.4-22.58-4.19-19.15-6.22-21.81-31.46-22.07-34.63.26-3.05,1.14-17.63-7-27.66-4.44-5.45-10.65-8.62-18.52-9.26a5,5,0,0,0-.76,9.9c5.08.51,8.88,2.41,11.67,5.71,5.08,6.09,5.08,15.47,5,19.15-2.16,1.91-8.12,6.22-19.54,6.22a48.66,48.66,0,0,1-8.37-.76c-19.66-3.17-20.29-24-20.29-24.87A5,5,0,0,0,57,213.29c-1.78-.26-43.14-4.82-42-53.16.63-26.38,29.17-33,30.31-33.23h.13c.13,0,.26-.13.38-.13s.13-.13.26-.13.12-.12.25-.12.25-.13.38-.13h0c.25,0,20.3-10.53,39.71,3.68a23.42,23.42,0,0,1,8.5,10.4,2.1,2.1,0,0,0,.38,1.27,18.41,18.41,0,0,1,.76,6.47c-.38,8.5-5.84,16.87-11.55,21.31a43.18,43.18,0,0,0-18.9-8,49.16,49.16,0,0,0-20.42,1,5,5,0,0,0,2.92,9.52,39.58,39.58,0,0,1,15.85-.76c11.67,1.9,20.55,9,26.39,21.18a4.73,4.73,0,0,0,4.44,2.79,4.2,4.2,0,0,0,2.16-.5,5,5,0,0,0,2.28-6.6,55.7,55.7,0,0,0-7.61-11.8c7-5.83,13.44-15.6,14.2-26.76a43.78,43.78,0,0,0,18.27,3.67,65.08,65.08,0,0,0,14.72-1.77c.25-.13.5-.13.76-.26,2.28,6.09,8.37,16.5,25.24,20.55A49.15,49.15,0,0,0,175.7,173c20.05,0,45-10,54.17-22.33a42.76,42.76,0,0,0,22.45,7.23c2.41,1.78,14.85,10.91,16.11,23.6.76,8-3.29,16.11-11.79,24.23-9.26,8.75-17.76,9.38-21.32,9.13a25.53,25.53,0,0,0-1.9-4.31A33.19,33.19,0,0,0,212.24,193a36.85,36.85,0,0,0-34.63,7.23,48.78,48.78,0,0,0-7.24,7.49c-8.24-8.76-17-10.41-23.34-10a30.46,30.46,0,0,0-14.2,4.32,5,5,0,0,0-1.53,6.85,5.08,5.08,0,0,0,6.85,1.52c1.53-1,16.11-9.39,28.42,8.5,3.42,5.07,4.69,9.77,3.42,13.83-2.41,8.11-12.81,12.55-12.94,12.55a5,5,0,0,0,1.91,9.52,5.15,5.15,0,0,0,1.9-.38c.63-.26,14.84-6.22,18.65-18.78,1.9-6.34.89-12.94-3-19.66,3.68-5.58,14.72-18.65,33-13.45a23.81,23.81,0,0,1,15.09,12.44c6.73,13.19,4.19,31.46,1.14,39.83-.63,1.65-4.44,7.86-26.51,15.22a245.76,245.76,0,0,1-24.23,6.6,4.57,4.57,0,0,0-1.77.51A32.4,32.4,0,0,1,163.9,278.62Zm144.62,22.32a60.64,60.64,0,0,1-29,7c-3.68,0-7.23-.25-10.28-.51-2.66-.25-5.07-.38-7.35-.38a19.33,19.33,0,0,0-7.74,1.27,8,8,0,0,0-4.31,4.57c-1.4,3.55-2,10.4,6.21,32.22,2.41,6.34,4.95,12.43,6.73,16.49l-7.49,2c-6-9.64-24-38.82-28.67-47.44-3.93-7.11-11.29-7.11-14.46-7.11-1.4,0-2.92,0-4.44.13s-3.3.13-4.95.13c-5.2,0-11.41-.76-17.5-5.84-9.9-8.37-8.38-14.71-7-17.5a240.06,240.06,0,0,0,24.1-6.6c19-6.47,29.81-13.45,32.73-21.31.38-1.27.89-2.54,1.27-4.06,1.9-1.91,10.91-10.79,23-10.15,10.66.63,21.18,8.24,31.33,22.83a4.89,4.89,0,0,0,4.06,2.16,4.77,4.77,0,0,0,2.79-.89,4.89,4.89,0,0,0,1.27-6.85c-7.86-11.29-16.24-19.15-25-23.34,4.06-8.63,15.73-26.64,38.19-19.92Q330,223.37,334.78,243a60.11,60.11,0,0,1,1,19.92h0C335.79,263.14,332.12,288.64,308.52,300.94ZM381.59,227c-4.95,17.88-25.25,26.76-35.77,30.19a64,64,0,0,0-1.65-15.86c-3.81-16.62-14.08-27.91-29.69-32.6S284.67,208,273.76,220A61.5,61.5,0,0,0,264,235c-1.52-.25-3-.38-4.56-.51a37.9,37.9,0,0,0-21.06,5.71,66.74,66.74,0,0,0-.76-15c6.21-.25,15.85-2.54,25.62-11.8,10.91-10.27,15.86-21.18,14.84-32.34-1-10.41-7.1-18.65-12.43-24.11,1-.25,2-.63,3.05-.88,11.67-3.56,19.79-10.15,24.1-19.41,8-17.26-.25-37.43-.63-38.31a4.95,4.95,0,1,0-9.14,3.8c.13.26,7,17.13.76,30.32-3.17,6.6-9.26,11.42-18,14.08-32.22,9.9-47.57-22.45-48.21-23.85a5,5,0,1,0-9,4.19A62.12,62.12,0,0,0,221.88,145c-7.23,10.65-37.3,21.82-54.93,17.63C154,159.5,149.82,151.76,148.56,148c7.23-4.44,12.05-11.55,13.95-20.93a47.81,47.81,0,0,0,0-18.27,5,5,0,0,0-9.77,2.15,41.2,41.2,0,0,1,0,14.21c-1.9,9.39-7.23,15-16.49,17.13-20.17,4.69-30.06-2.67-32.6-4.95-1.9-5-5.46-10.15-11.93-14.84-17.88-13.07-36-9.64-44.78-6.6-1.14-6-.88-17.38,10.66-31.71,7.1-9,16.87-13.58,29.05-13.58a51.3,51.3,0,0,1,14.59,2.16c2.15,1.27,12.56,8,6,25.88a4.88,4.88,0,0,0,2.92,6.34,9.71,9.71,0,0,0,1.77.26,5,5,0,0,0,4.7-3.3c6.72-18.4-.38-30.32-7.23-35.78A42.28,42.28,0,0,1,133,44.44,34.94,34.94,0,0,1,145.89,42a41.54,41.54,0,0,1,18.9,4.82,49.11,49.11,0,0,0-4.31,11.29c-3,12.56-.25,24.23,8.12,33.62,6.59,7.48,14.84,11.29,24,11.29a34.07,34.07,0,0,0,8-.89,47.87,47.87,0,0,0,12.17-4.69,26.33,26.33,0,0,0,4.32,3,33.71,33.71,0,0,0,17.38,4.95c12.05,0,22.2-6.72,27-11.67a4.94,4.94,0,0,0-7.11-6.85,34.06,34.06,0,0,1-9.77,6.47A23.54,23.54,0,0,1,222.13,92c-4.06-2.41-6.47-5.45-7.23-9.26-2-9.77,6.09-21.44,6.22-21.56A5,5,0,0,0,213,55.35c-.38.64-10.66,15.22-7.74,29.31a29.53,29.53,0,0,0,1.52,4.69,38.13,38.13,0,0,1-8.24,3c-8.76,1.91-16.24-.5-22.33-7.35-14.59-16.49-1.4-35.78-.51-37.05.64-.76,10.15-13.06,29.18-13.06,1.52,0,2.92.13,4.44.25,22.2,2.16,30.32,16.75,30.7,17.38a4.88,4.88,0,0,0,6.59,2.16,55.68,55.68,0,0,1,21.7-4.7,39.6,39.6,0,0,1,21.31,5.84c20,12.3,21.44,30.32,21.44,31.08a4.62,4.62,0,0,0,1.65,3.42,4.83,4.83,0,0,0,3.68,1.27h1.26c6.22,0,27.91,1.78,45.8,26,17.5,23.59,13.57,48.71,12.05,58.1v.12c-13.57,2.54-25,.77-33.87-5.32-15.48-10.66-18.52-31.34-18.52-31.59a5,5,0,0,0-9.9,1.27c.13,1,3.43,25.24,22.58,38.44,8,5.45,17.38,8.24,28.17,8.24a71.59,71.59,0,0,0,14.2-1.52C381.84,189.57,389.2,200.6,381.59,227Z" transform="translate(-5.05 -25.03)"/></svg>