<svg xmlns="http://www.w3.org/2000/svg" viewBox="0 0 391.41 391.41"><defs><style>.cls-1{fill:#fff;}.cls-2{fill:none;stroke:#fff;stroke-miterlimit:10;stroke-width:11px;}</style></defs><title>znam-geography</title><g id="Layer_2" data-name="Layer 2"><path class="cls-1" d="M234.65,380.24a39.47,39.47,0,0,1,3.51-24.85c4.34-8.61,9-17.11,11.08-26.62,2.23-10,.78-17.45-9.08-22.39a25.26,25.26,0,0,1-11.25-10.85,67.07,67.07,0,0,0-10-14.09c-3.25-3.55-6.28-7.37-5-12.78a2.19,2.19,0,0,0,0-.84,15.84,15.84,0,0,1,1.57-10.06c2.31-4.57,5-8.93,7.57-13.38a10.6,10.6,0,0,0,1.42-2.78c1.56-7.15.44-9.49-6-12.91-.31-.16-.64-.29-.94-.47-1.8-1.15-3.38-1.06-4.83.67a3.87,3.87,0,0,1-5.31.91c-4-2.21-8.08-4.29-11.91-6.78a21.59,21.59,0,0,1-4.58-4.8c-1.67-2.07-3-4.43-4.74-6.42a6.91,6.91,0,0,0-3.31-1.57c-2.28-.64-4.69-.87-6.9-1.67-7-2.5-13.86-5.09-20.72-7.83-5.93-2.37-11.92-4.67-17.59-7.6s-8.49-7.79-8.75-14.22a11.41,11.41,0,0,0-1.41-4.79,39.22,39.22,0,0,0-4.25-6.29c-4.28-5.2-8.15-10.6-9.89-17.25a6.8,6.8,0,0,0-.89-1.56l-.64.23a28.22,28.22,0,0,0,.58,3.45c1.47,5,3,10,4.53,14.93a30.86,30.86,0,0,1,.61,3.07l-1,.6c-.34-.61-.63-1.25-1-1.83-2.16-3.21-4.39-6.38-6.47-9.64a6.48,6.48,0,0,1-.58-2.6c-.34-2.7-.14-5.58-1-8.07-1.89-5.29-4.27-10.4-6.57-15.52A38.87,38.87,0,0,1,97.18,119c-.23-6.6,1.89-12.6,4.51-18.48,2.12-4.76,4.22-9.49,4.61-14.83.22-3.06,1.63-3.49,4.23-1.74a2.63,2.63,0,0,0,.67.18c-2-3.84-2.16-7.82-2.12-11.86,0-4.78.23-9.58,0-14.35s-2.61-6.37-7.07-5.21a87.13,87.13,0,0,0-10.91,3.83c-2.63,1.08-5.1,2.54-7.65,3.82L83,60a20.71,20.71,0,0,1,2.37-3.27A58.35,58.35,0,0,1,92,51.21q12.28-8.4,24.77-16.52a18.63,18.63,0,0,1,16.39-2.16c2.28.71,4.46,1.72,6.73,2.47q6.5,2.14,13.05,4.13a9,9,0,0,0,2.49,0l.21-.58c-.77-.88-1.55-1.76-2.3-2.65-1.32-1.58-1-2.69.88-3.32a10.33,10.33,0,0,1,2.48-.45c5.49-.39,10.48.74,14.56,4.75a19.66,19.66,0,0,0,17.18,5.72,28.18,28.18,0,0,1,3.44,0l.21.69a20.33,20.33,0,0,0-2,2.26c-.48.71-1.24,1.8-1,2.35,1,2.36-.51,3.13-2.08,4.08-3.31,2-6.67,3.93-9.8,6.17-2,1.44-1.8,2.69.16,4.23.66.52,1.37,1,2.08,1.44,5.28,3.36,10.55,6.74,15.87,10a19.67,19.67,0,0,0,4.17,2c2.2.71,3.81-.22,4.24-2.48a16.26,16.26,0,0,0,.23-4.82c-.44-3.56-1.11-7.09-1.71-10.62-.46-2.78.6-4,3.41-3.88a7.23,7.23,0,0,1,2.28.39c2.21.89,4.4,1.82,6.54,2.86s4,2.35,6.36,1.51a8.85,8.85,0,0,1,8.29,1c7.3,5,14.49,10.14,22.1,15.5-1.45.83-2.28,1.22-3,1.75A85,85,0,0,0,240,83.21c-2.35,2.17-1.89,4.12.91,5.75,1.33.78,2.78,1.35,4.16,2.06,2.4,1.23,2.65,2.51.58,4.32A52,52,0,0,1,240.47,99a2.19,2.19,0,0,1-3.14-.14c-1.43-1.31-2.94-1-4.28.38a14.38,14.38,0,0,1-2.44,2.31c-1.67,1.09-1.85,2.53-1.37,4.23.17.64.44,1.26.66,1.89-8.43,2.32-11.61,6.35-11.87,15a32.31,32.31,0,0,0,.26,5.9,5.93,5.93,0,0,1-1.77,5.37c-2.48,2.5-4.92,5-7.48,7.46-3.55,3.35-4.33,7.21-2.56,11.71.75,1.9,1.38,3.84,2,5.77a8.81,8.81,0,0,1,.66,2.65,2.85,2.85,0,0,1-.77,2.16,2.46,2.46,0,0,1-2.27-.22,46.84,46.84,0,0,1-4.33-4c-3.6-3.61-7.67-6.57-12.75-7.47-10.35-1.84-19.91.27-28.27,6.76-11.26,8.74-7.51,20.89-1.76,27.77a7.53,7.53,0,0,0,8.76,2.53,50.3,50.3,0,0,0,7.87-3.94c2.55-1.49,4.86-3.39,7.42-4.84s4.79-.27,4.93,2.65a25.14,25.14,0,0,1-.91,6.21c-.37,1.68-1,3.3-1.5,4.9a3.06,3.06,0,0,0,.59.32c.49.08,1,.12,1.46.21,6.37,1.14,10.85,4.54,12.68,10.9a31.48,31.48,0,0,1,.9,5.82,13,13,0,0,0,7.15,11c4.26,2.27,9,2.64,13.67,3.14a15.9,15.9,0,0,0,11.3-3.09c3.74-2.65,7.46-5.31,11.28-7.83a22.2,22.2,0,0,1,17.1-3.55,47.88,47.88,0,0,1,14.2,5.76,88.65,88.65,0,0,0,19.87,8.14c3,.82,6,1.64,8.89,2.62a9.59,9.59,0,0,1,6.86,8.53c.15,1.18.31,2.37.52,3.55.63,3.51,2.22,5.32,5.78,5.72,5.24.58,10.56.6,15.78,1.33a53.46,53.46,0,0,1,12,2.93c4.22,1.63,5.44,4.29,4.88,8.75a32.87,32.87,0,0,1-1.56,6.55c-3.94,11.38-9.88,21.76-16.47,31.77-5.3,8.05-10.57,16.19-19.14,21.35a7.73,7.73,0,0,0-1.86,1.71c-2.59,3.15-5.06,6.4-7.72,9.49-3.3,3.84-6.36,8-10.18,11.23a239.22,239.22,0,0,1-32.33,23,35.7,35.7,0,0,0-13.08,13.45Z" transform="translate(-4.25 -4.25)"/><path class="cls-1" d="M212.09,15.63c2.43.41,4.86.76,7.27,1.25,5.44,1.11,10.87,2.23,16.29,3.44A22.68,22.68,0,0,1,248,27.49a14.5,14.5,0,0,1,3.2,7.42A39.36,39.36,0,0,0,254,42.79c.81,1.94,2.1,3.68,2.84,5.64a3.65,3.65,0,0,1-.27,3.1,3.31,3.31,0,0,1-3,.6,40.37,40.37,0,0,1-8.43-3.74q-8.58-5.56-16.73-11.76c-6.54-5-13.51-8.61-21.94-8.72a8.84,8.84,0,0,1-2.49-.42c-2.26-.74-3.4-2.85-2.31-4.79C204.17,18.24,207.09,15.52,212.09,15.63Z" transform="translate(-4.25 -4.25)"/><path class="cls-1" d="M201.87,50.77c.84-1,1.38-1.66,1.89-2.31,2.3-3,1.87-5.59-1.6-6.89-3-1.12-6.26-1.43-9.37-2.23a57.73,57.73,0,0,1-6.33-2.06c-.52-.21-.77-1.07-1.15-1.63.64-.31,1.3-.93,1.93-.9,5.11.24,10.24.44,15.32,1,1.71.19,3.35,1.33,4.94,2.2,3.56,2,7.13,3.93,10.56,6.11a6.32,6.32,0,0,1,2.55,3.17c1.16,3.93-.69,6.26-4.77,6-3.57-.21-7.12-.78-10.66-1.3A19.6,19.6,0,0,1,201.87,50.77Z" transform="translate(-4.25 -4.25)"/><path class="cls-1" d="M249.26,186.56c-.5.47-.75.85-1.1,1-6.88,3.25-13.8,4.73-21,.71a68,68,0,0,0-10.74-5.34c-4.62-1.59-9.51-2.38-14.27-3.58-.64-.16-1.71-.76-1.68-1.06.08-.74.53-1.81,1.11-2a14.43,14.43,0,0,1,4.85-1.14c4.81-.09,9.29,1.46,13.55,3.53,4.05,2,8,4.1,11.92,6.34a6.64,6.64,0,0,0,7,.28,9.42,9.42,0,0,1,8.36,0A15.2,15.2,0,0,1,249.26,186.56Z" transform="translate(-4.25 -4.25)"/><path class="cls-1" d="M182,28.81a25.33,25.33,0,0,0,2.17-2.4,8.7,8.7,0,0,0,1.52-2.86c.34-1.59,1-2.86,2.52-3.32A48.59,48.59,0,0,1,197.25,18c3-.28,4.1,1.74,2.95,4.6a9.92,9.92,0,0,1-5,5.13,19.1,19.1,0,0,1-10.61,1.95A13.85,13.85,0,0,1,182,28.81Z" transform="translate(-4.25 -4.25)"/></g><g id="Layer_3" data-name="Layer 3"><circle class="cls-2" cx="195.71" cy="195.71" r="190.21"/></g></svg>